<svg width="100" height="41" viewBox="0 0 100 41" fill="none" xmlns="http://www.w3.org/2000/svg">
<g clip-path="url(#clip0_735_9)">
<mask id="mask0_735_9" style="mask-type:luminance" maskUnits="userSpaceOnUse" x="0" y="-1" width="100" height="42">
<path d="M0 -0.000137329V41H99.9997V-0.000137329H0Z" fill="white"/>
</mask>
<g mask="url(#mask0_735_9)">
<path fill-rule="evenodd" clip-rule="evenodd" d="M32.4317 31.4359C32.4317 35.1984 29.3964 38.2674 25.6754 38.2674V41C29.1088 41 32.1252 39.1335 33.7829 36.3523V31.4359H32.4317ZM35.1341 31.4359C35.1341 35.1984 38.1697 38.2674 41.8915 38.2674V41C38.4563 41 35.4409 39.1335 33.7829 36.3523V31.4359H35.1341ZM67.5667 9.56439C67.5667 5.80158 70.6013 2.73302 74.3231 2.73302V-0.000137329C70.8887 -0.000137329 67.872 1.86696 66.2153 4.64775V9.56439H67.5667ZM64.863 9.56877H66.2153V4.65268C64.5581 1.87148 61.5408 0.00479507 58.1062 0.00479507V2.73712C61.8288 2.73712 64.863 5.80651 64.863 9.56877ZM64.863 31.4324C64.863 35.1943 61.8288 38.2717 58.1062 38.2717V40.9963C63.3168 40.9963 67.5667 36.699 67.5667 31.4324H64.863ZM97.2955 9.56973H99.9997C99.9997 4.3018 95.75 0.00561523 90.5389 0.00561523V2.73712C94.2595 2.73712 97.2955 5.80651 97.2955 9.56973ZM2.70264 31.4324H0C0 36.699 4.24908 40.9963 9.45921 40.9963V38.2633C5.73749 38.2633 2.70264 35.1943 2.70264 31.4324ZM41.8934 0.00561523C36.9418 0.00561523 32.4233 4.3237 32.4317 9.5663H35.1366C35.1366 5.68233 38.275 2.73301 41.8931 2.73165C41.884 1.43106 41.8851 0.998718 41.8934 0.00561523ZM67.5667 38.2641V40.9988H83.7829V27.3319H99.9997V9.56973H97.2955V24.5989H83.7829V9.56973H81.0798V38.2633L67.5667 38.2641ZM74.3231 -0.000137329L90.5389 0.00561523V2.74L74.3231 2.73302V-0.000137329ZM67.5729 25.3979L67.5667 31.4324H64.863V26.5313L49.0549 10.5218L50.9495 8.5847L67.5729 25.3979ZM32.4317 15.6039L49.0549 32.4167L50.9495 30.4795L35.1366 14.4703V9.5663H32.4317V15.6039ZM0 0.00561523H32.4317V2.73712H18.9186V31.3743H16.2154V2.73712H2.70264V31.4324H0V0.00561523ZM9.45921 38.2633H25.6779V40.9988H9.45921V38.2633ZM41.8919 0.00629807L58.1081 0.00561523V2.74L41.8919 2.73165V0.00629807ZM41.8915 38.2674L58.1081 38.2773V40.997L41.8919 40.9927L41.8915 38.2674Z" fill="white"/>
</g>
</g>
<defs>
<clipPath id="clip0_735_9">
<rect width="100" height="41" fill="white"/>
</clipPath>
</defs>
</svg>
